<?xml version="1.0" standalone="no"?><!DOCTYPE svg PUBLIC "-//W3C//DTD SVG 1.1//EN" "http://www.w3.org/Graphics/SVG/1.1/DTD/svg11.dtd"><svg t="1672302128405" class="icon" viewBox="0 0 1024 1024" version="1.1" xmlns="http://www.w3.org/2000/svg" p-id="4731" xmlns:xlink="http://www.w3.org/1999/xlink" width="64" height="64"><path d="M475.733333 603.733333c-3.2 0-6.4-1.066667-8.533333-4.266666L172.8 235.733333c-6.4-7.466667-7.466667-19.2-3.2-27.733333 4.266667-9.6 13.866667-14.933333 23.466667-14.933333H757.333333c10.666667 0 19.2 5.333333 23.466667 14.933333s3.2 20.266667-3.2 27.733333L483.2 599.466667c-1.066667 3.2-4.266667 4.266667-7.466667 4.266666zM193.066667 214.4c-3.2 0-4.266667 2.133333-4.266667 3.2 0 1.066667-1.066667 3.2 1.066667 5.333333L475.733333 576l285.866667-354.133333c2.133333-2.133333 1.066667-4.266667 1.066667-5.333334 0-1.066667-2.133333-3.2-4.266667-3.2h-565.333333z" fill="#262626" p-id="4732"></path><path d="M632.533333 408.533333H317.866667c-6.4 0-10.666667-4.266667-10.666667-10.666666s4.266667-10.666667 10.666667-10.666667h314.666666c6.4 0 10.666667 4.266667 10.666667 10.666667s-4.266667 10.666667-10.666667 10.666666zM475.733333 946.133333c-6.4 0-10.666667-4.266667-10.666666-10.666666v-341.333334c0-6.4 4.266667-10.666667 10.666666-10.666666s10.666667 4.266667 10.666667 10.666666v341.333334c0 5.333333-5.333333 10.666667-10.666667 10.666666z" fill="#262626" p-id="4733"></path><path d="M632.533333 946.133333H317.866667c-6.4 0-10.666667-4.266667-10.666667-10.666666s4.266667-10.666667 10.666667-10.666667h314.666666c6.4 0 10.666667 4.266667 10.666667 10.666667s-4.266667 10.666667-10.666667 10.666666z" fill="#262626" p-id="4734"></path><path d="M502.4 518.4c-1.066667 0-3.2 0-4.266667-1.066667-5.333333-2.133333-7.466667-8.533333-5.333333-13.866666L673.066667 78.933333c1.066667-4.266667 5.333333-6.4 9.6-6.4h103.466666c6.4 0 10.666667 4.266667 10.666667 10.666667s-4.266667 10.666667-10.666667 10.666667h-97.066666L512 512c-1.066667 4.266667-5.333333 6.4-9.6 6.4z" fill="#262626" p-id="4735"></path><path d="M779.733333 306.133333c-20.266667 0-40.533333-6.4-56.533333-18.133333-4.266667-3.2-5.333333-10.666667-2.133333-14.933333 3.2-4.266667 9.6-5.333333 14.933333-2.133334 12.8 9.6 27.733333 13.866667 43.733333 13.866667 41.6 0 74.666667-33.066667 74.666667-74.666667s-33.066667-74.666667-74.666667-74.666666c-38.4 0-71.466667 29.866667-74.666666 68.266666 0 6.4-5.333333 10.666667-11.733334 9.6-6.4 0-10.666667-5.333333-9.6-11.733333 4.266667-49.066667 45.866667-88.533333 96-88.533333 53.333333 0 96 42.666667 96 96 0 54.4-43.733333 97.066667-96 97.066666z" fill="#262626" p-id="4736"></path></svg>